<?xml version="1.0" standalone="no"?>
<!DOCTYPE svg PUBLIC "-//W3C//DTD SVG 20010904//EN"
 "http://www.w3.org/TR/2001/REC-SVG-20010904/DTD/svg10.dtd">
<svg version="1.0" xmlns="http://www.w3.org/2000/svg"
 width="2000.000000pt" height="2000.000000pt" viewBox="0 0 2000.000000 2000.000000"
 preserveAspectRatio="xMidYMid meet">
<metadata>
Created by potrace 1.14, written by Peter Selinger 2001-2017
</metadata>
<g transform="translate(0.000000,2000.000000) scale(0.100000,-0.100000)"
fill="#000000" stroke="none">
<path d="M5550 19335 l0 -665 -1215 0 -1215 0 0 -545 0 -545 -660 0 -660 0 0
-3830 0 -3830 660 0 660 0 0 -1210 0 -1210 -660 0 -660 0 0 -1210 0 -1210 625
0 625 0 0 -40 c0 -39 1 -40 35 -40 l35 0 0 -625 0 -625 550 0 550 0 0 -665 0
-665 -550 0 -550 0 0 -1210 0 -1210 4965 0 4965 0 0 665 0 665 -585 0 -585 0
0 1875 0 1875 585 0 585 0 0 545 0 545 2500 0 2500 0 0 1290 0 1290 -665 0
-665 0 0 585 0 585 -550 0 -550 0 0 -585 0 -585 -1870 0 -1870 0 0 585 0 585
585 0 585 0 0 665 0 665 625 0 625 0 0 625 0 625 665 0 665 0 0 665 0 665
-665 0 -665 0 0 545 0 545 -1210 0 -1210 0 0 665 0 665 1210 0 1210 0 0 665 0
665 -1875 0 -1875 0 0 1210 0 1210 -2500 0 -2500 0 0 -665z"/>
</g>
</svg>
